<svg height="512pt" viewBox="0 0 512 512" width="512pt" xmlns="http://www.w3.org/2000/svg"><path d="m256 0c-139.488281 0-256 116.140625-256 256 0 139.488281 116.140625 256 256 256 139.488281 0 256-116.140625 256-256 0-139.488281-116.140625-256-256-256zm159.101562 96.902344c85.644532 85.644531 89.054688 217.871094 10.261719 307.246094l-46.730469-46.730469c7.929688-17.179688 12.367188-36.289063 12.367188-56.417969 0-32.925781-11.960938-64.578125-33.695312-89.234375l-101.304688-147.226563-69.394531 100.851563-78.753907-78.75c89.375-78.792969 221.601563-75.382813 307.25 10.261719zm-236.753906 133.414062 12.535156-18.21875 150.265626 150.265625c-19.085938 26.414063-50.140626 43.636719-85.148438 43.636719-57.898438 0-105-47.101562-105-105 0-25.863281 9.484375-50.714844 26.710938-69.972656zm29.828125-43.351562 47.824219-69.503906 77.652344 112.855468.636718.710938c17.226563 19.257812 26.710938 44.109375 26.710938 69.972656 0 11.65625-1.910156 22.871094-5.433594 33.355469zm-111.277343 228.132812c-85.644532-85.644531-89.054688-217.871094-10.261719-307.246094l82.675781 82.671876-14.617188 21.242187c-21.734374 24.65625-33.695312 56.308594-33.695312 89.234375 0 74.4375 60.5625 135 135 135 43.269531 0 81.84375-20.464844 106.566406-52.222656l41.582032 41.582031c-89.375 78.792969-221.601563 75.382813-307.25-10.261719zm0 0"/><path d="m256 376v-30c-11.996094 0-23.292969-4.6875-31.804688-13.195312-8.507812-8.511719-13.195312-19.808594-13.195312-31.804688h-30c0 20.011719 7.808594 38.839844 21.984375 53.015625s33.003906 21.984375 53.015625 21.984375zm0 0"/></svg>