<?xml version="1.0" encoding="utf-8"?>
<!-- Generator: Adobe Illustrator 16.0.0, SVG Export Plug-In . SVG Version: 6.00 Build 0)  -->
<!DOCTYPE svg PUBLIC "-//W3C//DTD SVG 1.1//EN" "http://www.w3.org/Graphics/SVG/1.1/DTD/svg11.dtd">
<svg version="1.1" id="Layer_1" xmlns="http://www.w3.org/2000/svg" xmlns:xlink="http://www.w3.org/1999/xlink" x="0px" y="0px"
	 width="268px" height="100px" viewBox="0 0 268 100" enable-background="new 0 0 268 100" xml:space="preserve">
<g enable-background="new    ">
	<path fill="#FFFFFF" d="M181.54,58.499h-3.96v-5.976h11.016v27.144h-7.056V58.499z"/>
	<path fill="#FFFFFF" d="M201.7,58.499h-3.96v-5.976h11.016v27.144H201.7V58.499z"/>
	<path fill="#FFFFFF" d="M225.315,63.107c0.192,0.023,0.354,0.035,0.486,0.035s0.246,0,0.342,0c0.888,0,1.607-0.264,2.16-0.792
		c0.552-0.527,0.828-1.211,0.828-2.052c0-0.815-0.258-1.476-0.774-1.979c-0.516-0.504-1.182-0.756-1.998-0.756
		c-0.863,0-1.56,0.287-2.088,0.863s-0.792,1.32-0.792,2.232h-6.516c0.168-1.416,0.521-2.676,1.062-3.78
		c0.54-1.104,1.23-2.034,2.07-2.79s1.823-1.332,2.952-1.728c1.128-0.396,2.376-0.595,3.744-0.595c1.344,0,2.562,0.187,3.653,0.559
		s2.028,0.899,2.809,1.584c0.779,0.684,1.38,1.512,1.8,2.483c0.42,0.973,0.63,2.059,0.63,3.259c0,1.296-0.246,2.357-0.738,3.186
		s-1.193,1.542-2.105,2.142c1.392,0.433,2.478,1.206,3.258,2.322c0.779,1.116,1.17,2.49,1.17,4.122c0,1.345-0.265,2.568-0.792,3.672
		c-0.528,1.104-1.266,2.053-2.214,2.845s-2.076,1.403-3.384,1.836c-1.309,0.432-2.742,0.647-4.302,0.647
		c-2.089,0-3.973-0.408-5.652-1.224c-1.681-0.815-3.024-2.112-4.032-3.889c-0.456-0.792-0.762-1.584-0.918-2.376
		s-0.233-1.596-0.233-2.411h6.983c0.048,1.271,0.42,2.237,1.116,2.897c0.695,0.66,1.632,0.99,2.808,0.99
		c1.248,0,2.16-0.336,2.736-1.008s0.864-1.5,0.864-2.484c0-1.176-0.349-2.063-1.044-2.664c-0.696-0.6-1.524-0.899-2.484-0.899
		c-0.24,0-0.468,0.018-0.684,0.054c-0.217,0.036-0.457,0.078-0.721,0.126V63.107z"/>
	<path fill="#FFFFFF" d="M248.932,63.719l8.604-11.195h8.712l-10.764,12.852l11.771,14.292h-9.144l-9.18-11.772v11.772h-7.057
		V52.523h7.057V63.719z"/>
</g>
<path id="Shape" fill="#FFFFFF" d="M152.119,18.392c-0.567-2.354-2.412-4.186-4.771-4.741c-1.334-0.314-30.919-6.963-60.713,7.412
	C75.819-9.83,50.202-25.694,49.028-26.406c-2.046-1.241-4.609-1.231-6.646,0C40.653-25.357,0-0.16,0,48.865
	c0,48.988,40.653,74.184,42.386,75.232c0.696,0.424,1.453,0.646,2.223,0.779c1.389,0.311,8.502,1.789,18.757,1.789
	c17.268,0,43.216-4.234,64.76-25.479C163.249,66.551,152.592,20.342,152.119,18.392z M45.817,15.21
	c-3.541,0-6.415,2.874-6.415,6.415v12.897l-5.687-5.5c-2.553-2.463-6.617-2.396-9.07,0.154c-2.466,2.546-2.396,6.607,0.151,9.07
	l14.609,14.125v13.083l-5.318-6.088c-2.332-2.668-6.379-2.941-9.048-0.609s-2.941,6.384-0.609,9.052l14.725,16.857
	c-0.013,0.07-0.026,0.143-0.035,0.212c-0.055,0.327-0.116,0.658-0.167,0.981c-0.189,1.211-0.356,2.404-0.494,3.578
	c-0.035,0.289-0.061,0.571-0.089,0.857c-0.1,0.91-0.189,1.812-0.263,2.697c-0.032,0.378-0.061,0.753-0.086,1.129
	c-0.061,0.855-0.109,1.693-0.148,2.521c-0.013,0.278-0.032,0.562-0.042,0.834c-0.042,1.059-0.064,2.088-0.071,3.092
	c-0.003,0.291,0,0.566,0,0.854c0,0.741,0.007,1.462,0.022,2.171c0.003,0.16,0,0.334,0.007,0.494
	C27.154,93.919,12.83,75.318,12.83,48.865c0-34.056,23.956-55.253,32.895-61.976c6.931,5.17,22.788,18.923,29.604,40.705
	c-0.016,0.01-0.029,0.022-0.045,0.032c-1.851,1.27-3.631,2.637-5.379,4.048c-0.436,0.353-0.869,0.712-1.299,1.071
	c-1.726,1.453-3.419,2.947-5.026,4.535c-1.28,1.261-2.479,2.54-3.637,3.83c-0.343,0.382-0.674,0.767-1.007,1.151
	c-0.837,0.965-1.646,1.938-2.421,2.916c-0.298,0.375-0.603,0.75-0.892,1.129c-1.001,1.309-1.966,2.624-2.864,3.948
	c-0.08,0.119-0.154,0.241-0.234,0.362c-0.103,0.151-0.192,0.302-0.292,0.456V21.625C52.232,18.084,49.358,15.21,45.817,15.21z
	 M119.119,92.053c-20.835,20.545-47.245,22.344-61.524,21.52c5.228-6.697,13.304-16.557,23.18-27.07
	c3.747-1.537,16.566-6.387,32.27-7.777c3.528-0.313,6.136-3.426,5.822-6.957c-0.312-3.528-3.352-6.133-6.957-5.822
	c-4.169,0.369-8.127,0.957-11.826,1.652c6.735-6,13.853-11.713,21.163-16.631c2.941-1.979,3.72-5.962,1.741-8.903
	c-1.972-2.938-5.969-3.721-8.9-1.738c-10.629,7.152-20.774,15.74-29.96,24.507c-0.042-1.369-0.116-2.776-0.263-4.252
	c-0.35-3.521-3.448-6.101-7.018-5.748c-3.528,0.354-6.097,3.492-5.748,7.019c0.965,9.688-1.251,16.307-2.075,18.371
	c-7.422,8.045-13.731,15.582-18.51,21.563c0-0.103-0.006-0.195-0.006-0.3c0-0.137,0.003-0.284,0.003-0.422
	c0-1.03,0.022-2.096,0.064-3.191c0.006-0.146,0.009-0.292,0.016-0.441c0.051-1.154,0.128-2.353,0.234-3.574
	c0.019-0.242,0.042-0.486,0.067-0.733c0.115-1.245,0.256-2.515,0.439-3.817c0.019-0.141,0.045-0.285,0.064-0.426
	c0.151-1.043,0.343-2.111,0.542-3.182c0.135-0.443,0.221-0.902,0.257-1.381c0.26-1.281,0.561-2.584,0.898-3.898
	c0.07-0.273,0.145-0.546,0.218-0.818c0.378-1.403,0.792-2.822,1.267-4.252c0.039-0.113,0.08-0.226,0.119-0.338
	c0.462-1.365,0.975-2.738,1.533-4.117c0.096-0.242,0.189-0.481,0.292-0.727c0.59-1.417,1.241-2.838,1.947-4.262
	c0.138-0.276,0.282-0.555,0.423-0.831c0.748-1.462,1.543-2.929,2.422-4.384c0.035-0.06,0.074-0.116,0.112-0.174
	c0.86-1.414,1.796-2.819,2.788-4.219c0.18-0.253,0.353-0.51,0.539-0.763c1.017-1.396,2.104-2.778,3.265-4.147
	c0.218-0.257,0.446-0.514,0.67-0.771c1.231-1.414,2.518-2.819,3.913-4.195c2.04-2.011,4.195-3.9,6.45-5.655
	c0.266-0.208,0.548-0.395,0.814-0.597c0.869-0.657,1.742-1.315,2.64-1.931c1.177-0.808,2.374-1.581,3.596-2.316l0.003-0.003
	c0,0,0.003,0,0.003-0.003c21.541-13.031,45.009-11.675,54.262-10.45C141.875,36.533,143.557,67.952,119.119,92.053z"/>
<g>
	<path fill="#FFFFFF" d="M188.238,37.101l3.363,1.066c-0.517,1.875-1.373,3.268-2.572,4.178c-1.199,0.91-2.721,1.365-4.564,1.365
		c-2.281,0-4.156-0.779-5.625-2.338s-2.203-3.689-2.203-6.393c0-2.859,0.738-5.08,2.215-6.662c1.478-1.582,3.418-2.373,5.824-2.373
		c2.102,0,3.809,0.621,5.121,1.863c0.781,0.734,1.367,1.789,1.758,3.164l-3.434,0.82c-0.203-0.891-0.627-1.594-1.271-2.109
		c-0.644-0.515-1.428-0.773-2.35-0.773c-1.273,0-2.307,0.457-3.1,1.371c-0.793,0.914-1.189,2.395-1.189,4.441
		c0,2.172,0.391,3.719,1.172,4.641c0.781,0.922,1.797,1.383,3.047,1.383c0.922,0,1.715-0.293,2.379-0.879
		C187.473,39.28,187.949,38.358,188.238,37.101z M180.375,21.726h2.66l1.266,1.746l1.359-1.746h2.648l-2.427,3.457h-3.047
		L180.375,21.726z"/>
	<path fill="#FFFFFF" d="M210.07,43.417h-3.773l-1.5-3.902h-6.867l-1.418,3.902h-3.68l6.691-17.18h3.668L210.07,43.417z
		 M203.684,36.62l-2.367-6.375l-2.319,6.375H203.684z"/>
	<path fill="#FFFFFF" d="M218.109,26.237h3.457v10.875c0,1.422-0.125,2.516-0.375,3.281c-0.336,1-0.945,1.803-1.828,2.408
		c-0.883,0.605-2.047,0.908-3.492,0.908c-1.695,0-3-0.475-3.914-1.424c-0.914-0.949-1.375-2.342-1.383-4.178l3.27-0.375
		c0.039,0.984,0.184,1.68,0.434,2.086c0.375,0.617,0.945,0.926,1.711,0.926c0.773,0,1.32-0.221,1.642-0.662s0.479-1.357,0.479-2.748
		V26.237L218.109,26.237z"/>
	<path fill="#FFFFFF" d="M225.258,43.417v-17.18h12.738v2.906h-9.27v3.809h8.625v2.895h-8.625v4.676h9.598v2.895L225.258,43.417
		L225.258,43.417z"/>
</g>
</svg>
