<?xml version="1.0" encoding="utf-8"?>
<!-- Generator: Adobe Illustrator 16.0.0, SVG Export Plug-In . SVG Version: 6.00 Build 0)  -->
<!DOCTYPE svg PUBLIC "-//W3C//DTD SVG 1.1//EN" "http://www.w3.org/Graphics/SVG/1.1/DTD/svg11.dtd">
<svg version="1.1" id="Layer_1" xmlns="http://www.w3.org/2000/svg" xmlns:xlink="http://www.w3.org/1999/xlink" x="0px" y="0px"
	 width="24px" height="24px" viewBox="0 0 24 24" enable-background="new 0 0 24 24" xml:space="preserve">
<g>
	<rect x="8.333" y="4.458" fill="#FFFFFF" width="7.833" height="8.958"/>
	<polygon fill="#FFFFFF" points="14.166,1.75 14.166,0 9.833,0 9.833,1.75 6.458,1.75 6.458,3.417 17.541,3.417 17.541,1.75 	"/>
</g>
<path fill="#FFFFFF" d="M19.709,16.416c-1.758,0-3.227,1.208-3.654,2.834H8.029c-0.428-1.626-1.896-2.834-3.654-2.834
	c-2.091,0-3.792,1.701-3.792,3.792S2.285,24,4.375,24c1.727,0,3.171-1.168,3.627-2.75h8.078c0.456,1.582,1.901,2.75,3.628,2.75
	c2.091,0,3.791-1.701,3.791-3.792S21.8,16.416,19.709,16.416z M4.375,22c-0.988,0-1.792-0.804-1.792-1.792s0.804-1.792,1.792-1.792
	c0.988,0,1.792,0.804,1.792,1.792S5.363,22,4.375,22z"/>
</svg>
